<svg id="Capa_1" data-name="Capa 1" xmlns="http://www.w3.org/2000/svg" viewBox="0 0 900 900"><defs><style>.cls-1{fill:none;stroke:#d9d9e8;stroke-miterlimit:10;stroke-width:30px;opacity:.3}.cls-2{fill:#7065b0}.cls-3{fill:#918bc1}.cls-4{font-size:42.09px}.cls-11,.cls-16,.cls-4{fill:#9292ad}.cls-11,.cls-4{font-family:Montserrat-ExtraBold,Montserrat;font-weight:800}.cls-5{letter-spacing:-.04em}.cls-6,.cls-7{letter-spacing:-.01em}.cls-8{letter-spacing:0}.cls-9{letter-spacing:-.01em}.cls-10{letter-spacing:-.03em}.cls-11{font-size:52.91px}.cls-12,.cls-13,.cls-14{letter-spacing:-.01em}.cls-15{fill:#7065ab}.cls-17{fill:#65bc9c}.cls-18{fill:#dd964d}.cls-19{fill:#dd614e}</style></defs><title>empty-cart</title><circle class="cls-1" cx="450" cy="405.83" r="206.83"/><path class="cls-2" d="M518.69 541.77a8.74 8.74 0 0 1-7.34-13.5l43.12-66.61a8.75 8.75 0 0 1 14.69 9.51L526 537.78a8.72 8.72 0 0 1-7.31 3.99zm-137.37 0a8.75 8.75 0 0 1-7.36-4l-43.12-66.61a8.75 8.75 0 1 1 14.69-9.51l43.12 66.61a8.74 8.74 0 0 1-7.33 13.5z"/><path class="cls-2" d="M351.11 538.67l18.59 93.82a23.13 23.13 0 0 0 22.7 18.65h115.2a23.13 23.13 0 0 0 22.7-18.65l18.59-93.82zm44.57 96.91a5.49 5.49 0 0 1-6.43-4.31l-14-70.6a5.47 5.47 0 1 1 10.75-2.13l14 70.6a5.48 5.48 0 0 1-4.32 6.44zm22.37.36a5.32 5.32 0 0 1-.79 0 5.46 5.46 0 0 1-5.41-4.69l-10.28-71.23a5.47 5.47 0 1 1 10.83-1.56l10.29 71.23a5.49 5.49 0 0 1-4.64 6.25zm21.37.54h-.37a5.48 5.48 0 0 1-5.46-5.11l-4.86-72.22a5.48 5.48 0 1 1 10.93-.73l4.86 72.22a5.48 5.48 0 0 1-5.1 5.84zm27-5.1a5.48 5.48 0 0 1-5.46 5.11h-.37a5.46 5.46 0 0 1-5.09-5.83l4.85-72.22a5.48 5.48 0 0 1 10.93.73zm32-71.31l-10.27 71.23a5.46 5.46 0 0 1-5.41 4.69 5.32 5.32 0 0 1-.79 0 5.47 5.47 0 0 1-4.63-6.2l10.28-71.23a5.48 5.48 0 1 1 10.84 1.56zm26.3.6l-14 70.6a5.46 5.46 0 0 1-5.36 4.41 5.54 5.54 0 0 1-1.07-.1 5.48 5.48 0 0 1-4.31-6.44l14-70.6a5.47 5.47 0 1 1 10.74 2.13z"/><path class="cls-3" d="M338.61 523.73h222.78v18.59H338.61z"/><text class="cls-4" transform="translate(361.53 727.87)">NO H<tspan class="cls-5" x="115.7" y="0">A</tspan><tspan x="146.93" y="0">Y</tspan></text><text class="cls-4" transform="translate(268.79 830.72)">EN <tspan class="cls-6" x="74.45" y="0">T</tspan><tspan x="100.71" y="0">U </tspan><tspan class="cls-7" x="146.04" y="0">C</tspan><tspan class="cls-8" x="176.6" y="0">ANA</tspan><tspan class="cls-9" x="276.68" y="0">S</tspan><tspan class="cls-10" x="303.49" y="0">T</tspan><tspan class="cls-8" x="328.74" y="0">A</tspan></text><text class="cls-11" transform="translate(270.77 783.72)"><tspan class="cls-12">P</tspan><tspan x="38.47" y="0">RODU</tspan><tspan class="cls-13" x="207.67" y="0">C</tspan><tspan class="cls-14" x="246.4" y="0">T</tspan><tspan x="279.47" y="0">OS</tspan></text><path class="cls-15" d="M214.52 258.41a38.71 38.71 0 1 1 38.7-38.71 38.75 38.75 0 0 1-38.7 38.71zm0-61.64a22.93 22.93 0 1 0 22.93 22.93 23 23 0 0 0-22.93-22.93zm444.62 86.77l31.76-82.09L773 233.2l-31.76 82.09zM702 226.62l-17.72 45.79 45.8 17.71 17.71-45.79z"/><path class="cls-16" d="M438.69 883l-7.83-7.82-7.82 7.82-4.09-4.09L430.86 867l7.83 7.82 7.77-7.77 7.67 7.67 7.63-7.62 7.72 7.72 7.48-7.47 4.09 4.08L469.48 883l-7.72-7.72-7.63 7.62-7.67-7.67-7.77 7.77z"/><path class="cls-15" d="M390.77 381.42l-9.42-9.42-17.23 17.23L346.89 372l-9.42 9.42 17.23 17.23-17.23 17.23 9.42 9.42 17.23-17.23 17.23 17.23 9.42-9.42-17.22-17.23 17.22-17.23z"/><path class="cls-17" d="M592.52 382.41a40.71 40.71 0 1 1 40.7-40.71 40.75 40.75 0 0 1-40.7 40.71zm0-64.82a24.12 24.12 0 1 0 24.12 24.11 24.14 24.14 0 0 0-24.12-24.11zm-262.46 8.91l-41.13-83.86 83.85-41.14 41.14 83.86zm-13.5-74.41l22.95 46.77 46.77-22.95-22.95-46.77zm332.8-66.18l-24.53-3.13-3.14 24.53-12.82-1.64 4.78-37.35 24.52 3.14 3.12-24.37 24.06 3.07 3.06-23.9 24.22 3.09 3-23.44 12.81 1.64-4.63 36.26-24.22-3.1-3.06 23.91-24.06-3.08-3.11 24.37zM514.38 451.9l-9.01-5.05-9.23 16.47-16.47-9.23-5.04 9.01 16.47 9.23-9.23 16.47 9.01 5.05 9.22-16.47 16.47 9.23 5.05-9.01-16.47-9.23 9.23-16.47z"/><path class="cls-18" d="M249.41 403.41a38.6 38.6 0 1 1 38.59-38.6 38.64 38.64 0 0 1-38.59 38.6zm0-61.46a22.87 22.87 0 1 0 22.86 22.86A22.89 22.89 0 0 0 249.41 342zM568.42 146l-66-66 66-66 66 66zm-36.84-66l36.84 36.84L605.26 80l-36.84-36.84zm-56.74 324.11l-16.4.01v16.4l-8.57.01-.01-24.98 16.4-.01-.01-16.3h16.1l-.01-15.99 16.19-.01v-15.68h8.57l.01 24.25-16.19.01v15.99h-16.09l.01 16.3zm-137.8-279.85l-2.59-14.04-25.67 4.73-4.73-25.68-14.04 2.59 4.73 25.68-25.68 4.73 2.59 14.04 25.67-4.73 4.73 25.68 14.05-2.59-4.73-25.68 25.67-4.73z"/><path class="cls-19" d="M422.61 496.2a21.12 21.12 0 1 1 21.24-21 21.13 21.13 0 0 1-21.24 21zm.19-33.63a12.52 12.52 0 1 0 12.44 12.59 12.53 12.53 0 0 0-12.44-12.59zM143.42 350l-32-32 32-32 32 32zm-17.85-32l17.85 17.85L161.27 318l-17.85-17.85zm313.7-134.77l-.49-39.5-39.51.48-.25-20.64 60.16-.75.48 39.51 39.26-.48.48 38.75 38.5-.47.48 39.01 37.76-.47.26 20.65-58.41.72-.48-39.01-38.51.48-.47-38.76-39.26.48zm43.13 128.03l4.24-5.54-10.13-7.74 7.75-10.13-5.54-4.24-7.75 10.13-10.13-7.75-4.23 5.54 10.13 7.75-7.75 10.13 5.54 4.23 7.74-10.13 10.13 7.75z"/></svg>