<svg id="Capa_1" data-name="Capa 1" xmlns="http://www.w3.org/2000/svg" viewBox="0 0 900 900"><defs><style>.cls-1{fill:none;stroke:#d9d9e8;stroke-miterlimit:10;stroke-width:30px;opacity:.3}.cls-2{fill:#7065b0}.cls-3{fill:#918bc1}.cls-4{fill:#9292ad}.cls-5{fill:#7065ab}.cls-6{fill:#65bc9c}.cls-7{fill:#dd964d}.cls-8{fill:#dd614e}</style></defs><title>empty-cart</title><circle class="cls-1" cx="450" cy="405.83" r="206.83"/><path class="cls-2" d="M518.69 541.77a8.74 8.74 0 0 1-7.34-13.5l43.12-66.61a8.75 8.75 0 0 1 14.69 9.51L526 537.78a8.72 8.72 0 0 1-7.31 3.99zm-137.37 0a8.75 8.75 0 0 1-7.36-4l-43.12-66.61a8.75 8.75 0 1 1 14.69-9.51l43.12 66.61a8.74 8.74 0 0 1-7.33 13.5z"/><path class="cls-2" d="M351.11 538.67l18.59 93.82a23.13 23.13 0 0 0 22.7 18.65h115.2a23.13 23.13 0 0 0 22.7-18.65l18.59-93.82zm44.57 96.91a5.49 5.49 0 0 1-6.43-4.31l-14-70.6a5.47 5.47 0 1 1 10.75-2.13l14 70.6a5.48 5.48 0 0 1-4.32 6.44zm22.37.36a5.32 5.32 0 0 1-.79 0 5.46 5.46 0 0 1-5.41-4.69l-10.28-71.23a5.47 5.47 0 1 1 10.83-1.56l10.29 71.23a5.49 5.49 0 0 1-4.64 6.25zm21.37.54h-.37a5.48 5.48 0 0 1-5.46-5.11l-4.86-72.22a5.48 5.48 0 1 1 10.93-.73l4.86 72.22a5.48 5.48 0 0 1-5.1 5.84zm27-5.1a5.48 5.48 0 0 1-5.46 5.11h-.37a5.46 5.46 0 0 1-5.09-5.83l4.85-72.22a5.48 5.48 0 0 1 10.93.73zm32-71.31l-10.27 71.23a5.46 5.46 0 0 1-5.41 4.69 5.32 5.32 0 0 1-.79 0 5.47 5.47 0 0 1-4.63-6.2l10.28-71.23a5.48 5.48 0 1 1 10.84 1.56zm26.3.6l-14 70.6a5.46 5.46 0 0 1-5.36 4.41 5.54 5.54 0 0 1-1.07-.1 5.48 5.48 0 0 1-4.31-6.44l14-70.6a5.47 5.47 0 1 1 10.74 2.13z"/><path class="cls-3" d="M338.61 523.73h222.78v18.59H338.61z"/><path class="cls-4" d="M392.51 698.41v29.46h-6.86l-13-15.7v15.7h-8.16v-29.46h6.86l13 15.7v-15.7zm12.35 28.07a15.06 15.06 0 0 1 0-26.68 18.79 18.79 0 0 1 16.79 0 15.06 15.06 0 0 1 0 26.68 18.79 18.79 0 0 1-16.79 0zm12.44-6a7.61 7.61 0 0 0 2.86-3 9.74 9.74 0 0 0 0-8.8 7.57 7.57 0 0 0-2.86-3 8.3 8.3 0 0 0-8.08 0 7.51 7.51 0 0 0-2.86 3 9.66 9.66 0 0 0 0 8.8 7.55 7.55 0 0 0 2.86 3 8.3 8.3 0 0 0 8.08 0zm56.98-22.07v29.46H466v-11.49h-11.41v11.49h-8.34v-29.46h8.34v11.07H466v-11.07zm25.64 23.73h-12.46l-2.32 5.73h-8.5l13-29.46h8.2l13 29.46h-8.67zm-2.45-6.14l-3.78-9.43-3.79 9.43zm29.72 1.3v10.57h-8.34v-10.69l-11.23-18.77h8.79l7 11.7 7-11.7h8.08zm-231.8 106.98v6.44h-23.65v-29.46h23.11v6.44H280v5h13.09v6.22H280v5.39zm32.66-23.02v29.46h-6.86l-13-15.7v15.7H300v-29.46h6.86l13 15.7v-15.7zm24.41 6.61h-9v-6.61h26.34v6.61h-9v22.85h-8.34zm23.38 19.86q-3.63-3.57-3.64-10.14v-16.33h8.34v16.08q0 7.06 5.59 7.07t5.56-7.07v-16.08h8.21v16.33q0 6.57-3.65 10.14t-10.2 3.58q-6.57 0-10.21-3.58zm48.32 1.62a14.55 14.55 0 0 1-5.79-5.45 15.95 15.95 0 0 1 0-15.82 14.55 14.55 0 0 1 5.79-5.45 17.34 17.34 0 0 1 8.31-2 17.91 17.91 0 0 1 7.28 1.43 14 14 0 0 1 5.39 4.13l-5.3 4.79a8.74 8.74 0 0 0-6.95-3.45 8.48 8.48 0 0 0-4.27 1.06 7.25 7.25 0 0 0-2.9 3 9.83 9.83 0 0 0 0 8.8 7.28 7.28 0 0 0 2.9 3 8.58 8.58 0 0 0 4.27 1 8.74 8.74 0 0 0 6.95-3.45l5.3 4.79a14 14 0 0 1-5.39 4.13 17.91 17.91 0 0 1-7.28 1.43 17.34 17.34 0 0 1-8.31-1.94zm43.92-4.35h-12.46l-2.32 5.72h-8.5l13-29.46h8.2l13.05 29.46h-8.67zm-2.44-6.15l-3.79-9.43-3.79 9.43zm43.81-17.59v29.46h-6.86l-13-15.7v15.7h-8.16v-29.46h6.86l13 15.7v-15.7zM535.08 825h-12.46l-2.31 5.72h-8.5l13-29.46H533l13 29.46h-8.67zm-2.44-6.15l-3.79-9.43-3.79 9.43zm19.19 11.58a17.05 17.05 0 0 1-5.47-2.36l2.73-6.15a18.6 18.6 0 0 0 9.73 2.91q4.78 0 4.79-2.4a2 2 0 0 0-1.36-1.87 25.12 25.12 0 0 0-4.4-1.29 42.16 42.16 0 0 1-5.56-1.53 9.51 9.51 0 0 1-3.83-2.63 7.16 7.16 0 0 1-1.6-4.89 8.42 8.42 0 0 1 1.48-4.86 9.84 9.84 0 0 1 4.39-3.43 18.17 18.17 0 0 1 7.18-1.26 25.53 25.53 0 0 1 5.72.65 17.75 17.75 0 0 1 5 1.92l-2.63 6.18a17.16 17.16 0 0 0-8.16-2.27 6.85 6.85 0 0 0-3.62.74 2.2 2.2 0 0 0-1.14 1.91 1.9 1.9 0 0 0 1.35 1.77 24.56 24.56 0 0 0 4.33 1.22 40.3 40.3 0 0 1 5.58 1.54 9.71 9.71 0 0 1 3.83 2.61 7 7 0 0 1 1.62 4.86 8.3 8.3 0 0 1-1.47 4.8 10.09 10.09 0 0 1-4.42 3.43 18 18 0 0 1-7.16 1.28 27.17 27.17 0 0 1-6.91-.88zm29.67-22.56h-9v-6.61h26.39v6.61h-9v22.85h-8.39zM620.22 825h-12.46l-2.31 5.72H597l13-29.46h8.21l13.05 29.46h-8.67zm-2.44-6.15l-3.78-9.43-3.78 9.43zm-317.65-70.5a13.06 13.06 0 0 1 0 24 21.11 21.11 0 0 1-8.73 1.65H285v9.68h-10.53v-37h16.93a21.11 21.11 0 0 1 8.73 1.67zm-4.49 16a5 5 0 0 0 1.64-4 5.05 5.05 0 0 0-1.64-4 7.21 7.21 0 0 0-4.87-1.43H285v10.84h5.82a7.31 7.31 0 0 0 4.82-1.38zm33.49 9.53h-5.71v9.84h-10.48v-37h16.93a21.15 21.15 0 0 1 8.73 1.67 13 13 0 0 1 .48 23.73l8 11.64h-11.23zm5-17.51a7.16 7.16 0 0 0-4.86-1.43h-5.82v10.84h5.82a7.26 7.26 0 0 0 4.86-1.4 4.93 4.93 0 0 0 1.64-4 5 5 0 0 0-1.67-4.01z"/><path class="cls-4" d="M360.21 782a18.94 18.94 0 0 1 0-33.54 23.62 23.62 0 0 1 21.11 0 18.92 18.92 0 0 1 0 33.54 23.62 23.62 0 0 1-21.11 0zm15.64-7.51a9.58 9.58 0 0 0 3.6-3.73 12.24 12.24 0 0 0 0-11.06 9.64 9.64 0 0 0-3.6-3.73 10.44 10.44 0 0 0-10.16 0 9.5 9.5 0 0 0-3.6 3.73 12.24 12.24 0 0 0 0 11.06 9.44 9.44 0 0 0 3.6 3.73 10.44 10.44 0 0 0 10.16 0zm21-27.81h17.52a24.48 24.48 0 0 1 10.79 2.32 17.13 17.13 0 0 1 7.3 6.45 19.8 19.8 0 0 1 0 19.58 17.06 17.06 0 0 1-7.3 6.45 24.48 24.48 0 0 1-10.79 2.28h-17.52zm17.09 28.68a10.75 10.75 0 0 0 7.65-2.7 11.1 11.1 0 0 0 0-14.92 10.75 10.75 0 0 0-7.65-2.7h-6.61v20.32zm30.88 4.64c-3.06-3-4.58-7.25-4.58-12.75v-20.57h10.48v20.21q0 8.9 7 8.89t7-8.89v-20.21h10.31v20.53c0 5.5-1.52 9.76-4.57 12.75s-7.33 4.5-12.83 4.5-9.76-1.46-12.81-4.46zm45.34 2a18.41 18.41 0 0 1-7.28-6.85 20.07 20.07 0 0 1 0-19.9 18.48 18.48 0 0 1 7.28-6.85 21.93 21.93 0 0 1 10.45-2.46 22.37 22.37 0 0 1 9.15 1.8 17.5 17.5 0 0 1 6.77 5.19l-6.66 6a11 11 0 0 0-8.73-4.34 10.79 10.79 0 0 0-5.37 1.32 9.17 9.17 0 0 0-3.65 3.73 12.41 12.41 0 0 0 0 11.06 9.11 9.11 0 0 0 3.65 3.73 10.79 10.79 0 0 0 5.37 1.32 11 11 0 0 0 8.73-4.34l6.66 6a17.57 17.57 0 0 1-6.77 5.18 22.37 22.37 0 0 1-9.15 1.8 21.93 21.93 0 0 1-10.45-2.39zm38.6-27h-11.38v-8.31h33.17V755h-11.32v28.73h-10.47zm33.3 27a18.94 18.94 0 0 1 0-33.54 23.62 23.62 0 0 1 21.11 0 18.92 18.92 0 0 1 0 33.54 23.62 23.62 0 0 1-21.11 0zm15.64-7.51a9.48 9.48 0 0 0 3.59-3.73 12.16 12.16 0 0 0 0-11.06 9.55 9.55 0 0 0-3.59-3.73 10.44 10.44 0 0 0-10.16 0 9.5 9.5 0 0 0-3.6 3.73 12.24 12.24 0 0 0 0 11.06 9.44 9.44 0 0 0 3.6 3.73 10.44 10.44 0 0 0 10.16 0zm25.3 8.86a21.55 21.55 0 0 1-6.88-3l3.44-7.73a22.37 22.37 0 0 0 5.77 2.65 21.92 21.92 0 0 0 6.45 1q6 0 6-3a2.5 2.5 0 0 0-1.72-2.36 31.27 31.27 0 0 0-5.53-1.61 54.33 54.33 0 0 1-7-1.93 11.73 11.73 0 0 1-4.81-3.31 8.94 8.94 0 0 1-2-6.14 10.6 10.6 0 0 1 1.85-6.11 12.38 12.38 0 0 1 5.53-4.31 22.69 22.69 0 0 1 9-1.59 32.16 32.16 0 0 1 7.19.82 22.06 22.06 0 0 1 6.25 2.41l-3.18 7.86a21.52 21.52 0 0 0-10.27-2.86 8.59 8.59 0 0 0-4.55.93 2.76 2.76 0 0 0-1.42 2.4 2.39 2.39 0 0 0 1.69 2.23 31 31 0 0 0 5.45 1.53 50.8 50.8 0 0 1 7 1.93 12.06 12.06 0 0 1 4.81 3.28 8.76 8.76 0 0 1 2 6.11 10.43 10.43 0 0 1-1.85 6 12.7 12.7 0 0 1-5.56 4.32 22.55 22.55 0 0 1-9 1.61 34.25 34.25 0 0 1-8.66-1.13z"/><path class="cls-5" d="M214.52 258.41a38.71 38.71 0 1 1 38.7-38.71 38.75 38.75 0 0 1-38.7 38.71zm0-61.64a22.93 22.93 0 1 0 22.93 22.93 23 23 0 0 0-22.93-22.93zm444.62 86.77l31.76-82.09L773 233.2l-31.76 82.09zM702 226.62l-17.72 45.79 45.8 17.71 17.71-45.79z"/><path class="cls-4" d="M438.69 883l-7.83-7.82-7.82 7.82-4.09-4.09L430.86 867l7.83 7.82 7.77-7.77 7.67 7.67 7.63-7.62 7.72 7.72 7.48-7.47 4.09 4.08L469.48 883l-7.72-7.72-7.63 7.62-7.67-7.67-7.77 7.77z"/><path class="cls-5" d="M390.77 381.42l-9.42-9.42-17.23 17.23L346.89 372l-9.42 9.42 17.23 17.23-17.23 17.23 9.42 9.42 17.23-17.23 17.23 17.23 9.42-9.42-17.22-17.23 17.22-17.23z"/><path class="cls-6" d="M592.52 382.41a40.71 40.71 0 1 1 40.7-40.71 40.75 40.75 0 0 1-40.7 40.71zm0-64.82a24.12 24.12 0 1 0 24.12 24.11 24.14 24.14 0 0 0-24.12-24.11zm-262.46 8.91l-41.13-83.86 83.85-41.14 41.14 83.86zm-13.5-74.41l22.95 46.77 46.77-22.95-22.95-46.77zm332.8-66.18l-24.53-3.13-3.14 24.53-12.82-1.64 4.78-37.35 24.52 3.14 3.12-24.37 24.06 3.07 3.06-23.9 24.22 3.09 3-23.44 12.81 1.64-4.63 36.26-24.22-3.1-3.06 23.91-24.06-3.08-3.11 24.37zM514.38 451.9l-9.01-5.05-9.23 16.47-16.47-9.23-5.04 9.01 16.47 9.23-9.23 16.47 9.01 5.05 9.22-16.47 16.47 9.23 5.05-9.01-16.47-9.23 9.23-16.47z"/><path class="cls-7" d="M249.41 403.41a38.6 38.6 0 1 1 38.59-38.6 38.64 38.64 0 0 1-38.59 38.6zm0-61.46a22.87 22.87 0 1 0 22.86 22.86A22.89 22.89 0 0 0 249.41 342zM568.42 146l-66-66 66-66 66 66zm-36.84-66l36.84 36.84L605.26 80l-36.84-36.84zm-56.74 324.11l-16.4.01v16.4l-8.57.01-.01-24.98 16.4-.01-.01-16.3h16.1l-.01-15.99 16.19-.01v-15.68h8.57l.01 24.25-16.19.01v15.99h-16.09l.01 16.3zm-137.8-279.85l-2.59-14.04-25.67 4.73-4.73-25.68-14.04 2.59 4.73 25.68-25.68 4.73 2.59 14.04 25.67-4.73 4.73 25.68 14.05-2.59-4.73-25.68 25.67-4.73z"/><path class="cls-8" d="M422.61 496.2a21.12 21.12 0 1 1 21.24-21 21.13 21.13 0 0 1-21.24 21zm.19-33.63a12.52 12.52 0 1 0 12.44 12.59 12.53 12.53 0 0 0-12.44-12.59zM143.42 350l-32-32 32-32 32 32zm-17.85-32l17.85 17.85L161.27 318l-17.85-17.85zm313.7-134.77l-.49-39.5-39.51.48-.25-20.64 60.16-.75.48 39.51 39.26-.48.48 38.75 38.5-.47.48 39.01 37.76-.47.26 20.65-58.41.72-.48-39.01-38.51.48-.47-38.76-39.26.48zm43.13 128.03l4.24-5.54-10.13-7.74 7.75-10.13-5.54-4.24-7.75 10.13-10.13-7.75-4.23 5.54 10.13 7.75-7.75 10.13 5.54 4.23 7.74-10.13 10.13 7.75z"/></svg>